<?xml version="1.0" encoding="UTF-8"?>
<svg id="Lager_2" data-name="Lager 2" xmlns="http://www.w3.org/2000/svg" viewBox="0 0 622.11 392.66">
  <g id="Lager_1-2" data-name="Lager 1">
    <g>
      <g>
        <path d="M100.79,91.83h38.91v5.97c-8.3,0-9.34,11.93-9.34,58.11,0,12.71.52,20.49,2.33,28.02h-6.23c-2.59-3.89-4.93-8.82-6.48-14.01-5.19,11.41-13.49,16.34-24.38,16.34-29.05,0-45.14-30.87-45.14-93.13S67.32,0,95.08,0c12.71,0,17.38,5.71,22.05,5.71,2.59,0,4.67-1.04,5.97-4.41l5.45,1.3v65.89l-6.23,1.3c-5.45-34.5-14.01-62.26-27.5-62.26-16.86,0-23.87,25.68-23.87,85.6s6.74,85.6,24.64,85.6c10.64,0,18.16-12.71,18.16-47.47,0-19.46-3.63-33.46-12.97-33.46v-5.97Z"/>
        <path d="M154.33,140.86c0-113.62-.26-132.56-9.6-132.56V2.33h38.65v5.97c-9.6,0-11.15,19.2-11.15,132.82,0,24.9,6.48,34.76,22.31,34.76s22.57-10.89,22.57-31.65c0-125.03-3.63-135.93-12.97-135.93V2.33h31.65v5.97c-9.6,0-11.15,18.68-11.15,135.93,0,29.05-13.23,42.54-33.72,42.54-22.57,0-36.58-11.93-36.58-45.91Z"/>
        <path d="M312.79,143.19c0,28.02-14.01,43.06-33.98,43.06-14.53,0-20.49-6.74-25.16-6.74-3.11,0-5.19,1.56-5.97,5.45l-5.71-1.3v-64.85l6.23-1.3c5.45,33.72,15.82,61.22,31.39,61.22,10.64,0,16.6-10.12,16.6-24.9,0-52.14-52.66-60.44-52.66-114.66,0-27.5,14.01-39.17,30.09-39.17,12.19,0,17.64,6.23,22.57,6.23,2.85,0,4.67-1.3,5.71-4.93l5.45,1.3v58.11l-5.97,1.3c-5.71-29.57-15.04-54.48-28.02-54.48-8.3,0-14.53,5.97-14.53,21.01,0,47.73,53.96,59.92,53.96,114.66Z"/>
        <path d="M325.5,2.33h79.38v64.33l-5.97,1.3-14.27-57.85h-10.38v83.01c0,61.22,1.56,84.83,12.97,84.83v5.97h-44.1v-5.97c11.67,0,13.23-23.35,13.23-84.83V10.12h-10.38l-14.27,57.85-6.23-1.3V2.33Z"/>
        <path d="M454.94,1.82c34.5,163.68,37.35,174.06,43.58,176.4v5.71h-37.87v-5.97c7.52-2.59,8.3-14.27,1.56-52.66h-32.94c-5.45,35.28-3.63,50.07,5.97,52.66v5.97h-32.94v-5.97c5.97-2.33,9.34-18.68,43.58-176.14h9.08ZM460.65,117.25c-3.37-18.94-8.56-43.32-15.3-74.71-6.74,30.87-11.67,55.51-14.79,74.71h30.09Z"/>
        <path d="M538.7,2.33h32.94v5.97c-6.23,2.33-9.34,18.68-43.58,176.14h-9.08C484.48,20.75,481.63,10.38,475.41,8.3V2.33h37.87v5.97c-11.41,3.89-8.56,26.72,15.3,136.19,20.75-97.28,25.42-132.04,10.12-136.19V2.33Z"/>
      </g>
      <g>
        <path d="M63.29,208.22h32.95v5.97c-6.23,2.33-9.34,18.68-43.58,176.14h-9.08C9.08,226.64,6.22,216.26,0,214.19v-5.97h37.87v5.97c-11.41,3.89-8.56,26.72,15.3,136.19,20.75-97.28,25.42-132.04,10.12-136.19v-5.97Z"/>
        <path d="M104.42,389.8v-5.97c9.6,0,11.16-11.93,11.16-84.83s-1.56-84.83-11.16-84.83v-5.97h38.91v5.97c-9.6,0-11.15,11.67-11.15,84.83s1.56,84.83,11.15,84.83v5.97h-38.91Z"/>
        <path d="M248.39,384.1v5.71h-42.28v-5.71c11.41-4.41,6.74-22.05-13.75-86.12l-10.89,21.79c.52,54.73,2.59,64.07,11.15,64.07v5.97h-38.91v-5.97c9.6,0,11.16-11.67,11.16-84.83s-1.56-84.83-11.16-84.83v-5.97h38.91v5.97c-9.6,0-11.15,11.67-11.15,84.83v3.11c29.57-58.89,36.83-83.01,23.09-87.94v-5.97h37.87v5.97c-6.48,1.04-15.05,14.01-38.65,61.22,26.98,86.12,35.54,106.36,44.62,108.69Z"/>
        <path d="M322.05,322.88l6.23,1.3v65.63h-74.19v-5.97c9.6,0,11.16-11.67,11.16-84.83s-1.56-84.83-11.16-84.83v-5.97h39.95v5.97c-9.86,0-11.15,11.93-11.15,84.83v83.01h25.16l14.01-59.14Z"/>
        <path d="M341.18,346.74c0-113.62-.26-132.56-9.6-132.56v-5.97h38.65v5.97c-9.6,0-11.15,19.2-11.15,132.82,0,24.9,6.48,34.76,22.31,34.76s22.57-10.89,22.57-31.65c0-125.03-3.63-135.93-12.97-135.93v-5.97h31.65v5.97c-9.6,0-11.15,18.68-11.15,135.93,0,29.05-13.23,42.54-33.72,42.54-22.57,0-36.58-11.93-36.58-45.91Z"/>
        <path d="M490.07,208.22h33.72v5.97c-9.6,0-10.9,23.09-10.9,84.83v91.31h-7.78l-54.99-140.6v48.77c0,64.33,5.45,85.34,15.3,85.34v5.97h-33.72v-5.97c9.6,0,10.9-19.2,10.9-84.83s-1.82-84.83-10.9-84.83v-5.97h23.09l50.58,129.7v-38.91c0-62.52-5.19-84.83-15.3-84.83v-5.97Z"/>
        <path d="M571.26,208.22c34.24,0,50.84,32.68,50.84,90.79s-16.6,90.79-48.25,90.79h-40.47v-5.97c9.6,0,11.16-21.01,11.16-84.83s-1.56-84.83-11.16-84.83v-5.97h37.87ZM562.18,382.02h9.86c21.01,0,29.57-26.98,29.57-83.01s-8.56-83.01-29.57-83.01h-9.86v166.02Z"/>
      </g>
    </g>
  </g>
</svg>